<?xml version="1.0" encoding="utf-8"?>
<!-- Generator: Adobe Illustrator 22.1.0, SVG Export Plug-In . SVG Version: 6.00 Build 0)  -->
<svg version="1.1" id="Layer_1" xmlns="http://www.w3.org/2000/svg" xmlns:xlink="http://www.w3.org/1999/xlink" x="0px" y="0px"
	 viewBox="0 0 550 270" style="enable-background:new 0 0 550 270;" xml:space="preserve">
<style type="text/css">
	.st0{fill:#FFFFFF;}
</style>
<g>
	<path class="st0" d="M146.1,135.3c8.3-6.3,9.6-15.6,9.6-20.5c0-4-0.7-9.8-4.1-15c-4.5-6.9-11.7-10.6-21.4-11
		c-2.2-0.1-4.3-0.1-6.4-0.1H61.5v92.7H73v-40H111l34.8,40h15.8l-35.5-40.2C133,140.8,140,139.9,146.1,135.3z M118.7,130.7H73V99H124
		c4.8,0,9.4,0,13.4,2.7c5.8,4,6.1,11.2,6.1,12.6c0,3.9-1.4,7.1-1.8,8c-3.2,6.3-9.1,7.9-17.2,8.3
		C122.5,130.7,120.6,130.7,118.7,130.7z"/>
	<path class="st0" d="M222.2,88.6l-44.8,92.7h12.2l11.2-23.3h54.8l11.3,23.3h12.4l-45.8-92.7H222.2z M205.6,148l22.3-46.4l22.7,46.4
		H205.6z"/>
	<polygon class="st0" points="326.8,133.8 292.6,88.6 278.3,88.6 321.3,144 321.3,181.4 332.3,181.4 332.3,144 373.7,88.6 
		359.9,88.6 	"/>
	<polygon class="st0" points="489.1,88.6 472.8,88.6 409,141.5 409,88.6 397.7,88.6 397.7,181.4 409,181.4 409,155 436.5,132.3 
		474.8,180.8 475.2,181.4 490.1,181.4 445.4,124.9 	"/>
	<path class="st0" d="M467.8,38.6C416.2,13.8,347.8,0.2,275,0.2S133.8,13.8,82.2,38.6C29.3,64,0.2,98.2,0.2,135s29.1,71,82,96.4
		c51.6,24.8,120.1,38.4,192.8,38.4s141.2-13.6,192.8-38.4c52.9-25.4,82-59.6,82-96.4S520.7,64,467.8,38.6z M463.1,221.5
		c-50.1,24.1-116.9,37.3-188.1,37.3c-71.1,0-137.9-13.3-188.1-37.3C38.1,198,11.2,167.3,11.2,135s26.9-63,75.8-86.5
		C137.1,24.4,203.9,11.2,275,11.2s137.9,13.3,188.1,37.3c48.9,23.5,75.8,54.2,75.8,86.5S511.9,198,463.1,221.5z"/>
</g>
</svg>
